<?xml version="1.0" encoding="UTF-8"?>
<svg id="Layer_1" xmlns="http://www.w3.org/2000/svg" version="1.1" viewBox="0 0 909.76 254.09">
  <!-- Generator: Adobe Illustrator 30.1.0, SVG Export Plug-In . SVG Version: 2.1.1 Build 136)  -->
  <defs>
    <style>
      .st0 {
        fill: #4ed1c8;
      }

      .st1 {
        fill: #586a79;
      }
    </style>
  </defs>
  <g>
    <path class="st0" d="M101.03,41.15c-7.15-3.61-15.42-5.42-24.8-5.42-10.4,0-19.49,2.1-27.29,6.28-5.82,3.13-10.51,7.18-14.08,12.15v-17.35H14.93v114.79h20.79v-59.13c0-8.37,1.48-15.38,4.44-21.01,2.96-5.63,7.18-9.89,12.67-12.78,5.49-2.89,11.91-4.33,19.28-4.33,9.82,0,17.44,2.82,22.85,8.45s8.12,14.01,8.12,25.12v63.68h20.79v-66.06c0-11.26-2.02-20.58-6.06-27.94-4.04-7.36-9.64-12.85-16.79-16.46Z"/>
    <path class="st0" d="M221.24,131.25c-5.56,2.31-11.73,3.47-18.52,3.47-8.23,0-15.52-1.66-21.88-4.98-6.36-3.32-11.3-7.98-14.84-13.97-2.61-4.42-4.25-9.29-4.93-14.62h93.2c.14-1.01.25-2.09.32-3.25.07-1.15.11-2.17.11-3.03,0-11.84-2.42-22.2-7.26-31.08-4.84-8.88-11.52-15.77-20.03-20.68-8.52-4.91-18.34-7.36-29.46-7.36s-20.83,2.49-29.56,7.47c-8.74,4.98-15.59,11.88-20.58,20.68-4.98,8.81-7.47,18.92-7.47,30.32s2.56,21.52,7.69,30.32c5.12,8.81,12.35,15.74,21.66,20.79,9.31,5.06,20.11,7.58,32.38,7.58,9.53,0,18.16-1.59,25.88-4.76,7.72-3.17,14.19-7.8,19.38-13.86l-11.48-13.43c-4.19,4.62-9.06,8.09-14.62,10.4ZM178.68,58.15c5.63-3.25,12.05-4.87,19.28-4.87s13.83,1.62,19.39,4.87c5.56,3.25,9.93,7.76,13.1,13.54,2.41,4.38,3.86,9.22,4.36,14.51h-73.78c.61-5.26,2.09-10.06,4.45-14.4,3.17-5.85,7.58-10.4,13.21-13.65Z"/>
    <path class="st0" d="M434.9,129.95c-4.33,3.61-9.75,5.42-16.24,5.42-5.78,0-10.22-1.66-13.32-4.98-3.11-3.32-4.66-8.08-4.66-14.29v-62.16h32.92v-17.11h-32.92V11.69h-20.79v25.12h-39.42l-31.51,41.39-31.51-41.39h-23.18l43.03,56.12-45.2,58.68h23.18l33.5-44.02,33.21,44.02h23.61l-45.65-58.75,40.45-52.4v13.46h19.49v63.03c0,11.55,3.17,20.43,9.53,26.64,6.35,6.21,15.3,9.31,26.86,9.31,4.76,0,9.35-.65,13.75-1.95,4.4-1.3,8.19-3.32,11.37-6.06l-6.5-14.94Z"/>
  </g>
  <g>
    <path class="st1" d="M538.92,95.51c-4.26-2.17-8.99-3.86-14.19-5.09-5.2-1.23-10.4-2.24-15.59-3.03-5.2-.79-9.93-1.77-14.19-2.92-4.26-1.15-7.73-2.78-10.4-4.87-2.67-2.09-4.01-5.09-4.01-8.99,0-4.62,2.24-8.41,6.71-11.37,4.47-2.96,11.26-4.44,20.36-4.44,5.63,0,11.26.65,16.89,1.95,5.63,1.3,11.05,3.68,16.24,7.15l8.88-16.46c-4.91-3.32-11.23-5.88-18.95-7.69-7.73-1.8-15.34-2.71-22.85-2.71-9.82,0-18.3,1.41-25.45,4.22-7.15,2.82-12.67,6.82-16.57,12.02-3.9,5.2-5.85,11.26-5.85,18.19s1.3,11.95,3.9,15.92c2.6,3.97,6.07,7.08,10.4,9.31,4.33,2.24,9.1,3.97,14.29,5.2,5.2,1.23,10.4,2.24,15.59,3.03,5.2.8,9.93,1.7,14.19,2.71,4.26,1.01,7.69,2.53,10.29,4.55,2.6,2.02,3.9,4.84,3.9,8.45,0,4.91-2.13,8.74-6.39,11.48-4.26,2.74-11.23,4.12-20.9,4.12-7.51,0-14.87-1.15-22.09-3.47-7.22-2.31-13.29-5.12-18.19-8.45l-8.66,16.46c4.91,3.76,11.66,6.93,20.25,9.53,8.59,2.6,17.65,3.9,27.18,3.9,10.25,0,19.06-1.41,26.42-4.22,7.36-2.82,13.07-6.75,17.11-11.8,4.04-5.05,6.06-11.05,6.06-17.98,0-6.5-1.34-11.7-4.01-15.59-2.67-3.9-6.14-6.93-10.4-9.1Z"/>
    <path class="st1" d="M613.97,136.66c-5.78,0-10.22-1.66-13.32-4.98-3.11-3.32-4.66-8.08-4.66-14.29v-62.16h32.92v-17.11h-32.92V12.99h-20.79v25.12h-19.49v17.11h19.49v63.03c0,11.55,3.17,20.43,9.53,26.64,6.35,6.21,15.3,9.31,26.86,9.31,4.76,0,9.35-.65,13.75-1.95,4.4-1.3,8.19-3.32,11.37-6.06l-6.5-14.94c-4.33,3.61-9.75,5.42-16.24,5.42Z"/>
    <path class="st1" d="M727.24,44.39c-8.52-4.91-18.34-7.36-29.46-7.36s-20.83,2.49-29.57,7.47c-8.74,4.98-15.59,11.88-20.58,20.68-4.98,8.81-7.47,18.92-7.47,30.32s2.56,21.52,7.69,30.32c5.12,8.81,12.35,15.74,21.66,20.79,9.31,5.06,20.11,7.58,32.38,7.58,9.53,0,18.16-1.59,25.88-4.76,7.72-3.17,14.19-7.8,19.38-13.86l-11.48-13.43c-4.19,4.62-9.06,8.09-14.62,10.4-5.56,2.31-11.73,3.46-18.52,3.46-8.23,0-15.52-1.66-21.88-4.98-6.36-3.32-11.3-7.98-14.84-13.97-2.61-4.42-4.25-9.3-4.93-14.62h93.2c.14-1.01.25-2.09.33-3.25.07-1.15.11-2.17.11-3.03,0-11.84-2.42-22.2-7.26-31.08-4.84-8.88-11.52-15.77-20.04-20.68ZM678.51,59.45c5.63-3.25,12.05-4.87,19.28-4.87s13.82,1.62,19.38,4.87c5.56,3.25,9.93,7.76,13.1,13.54,2.41,4.38,3.86,9.22,4.36,14.51h-73.78c.61-5.26,2.09-10.06,4.44-14.4,3.17-5.85,7.58-10.4,13.21-13.64Z"/>
    <path class="st1" d="M887.52,64.86c-5.06-8.73-11.91-15.56-20.58-20.47-8.66-4.91-18.63-7.36-29.89-7.36-9.82,0-18.66,2.17-26.53,6.5-5.67,3.12-10.46,7.38-14.4,12.75v-18.16h-19.93v156.81h20.79v-59.46c3.91,5.05,8.55,9.11,13.97,12.14,7.87,4.41,16.57,6.61,26.1,6.61,11.26,0,21.23-2.45,29.89-7.36,8.66-4.91,15.52-11.77,20.58-20.58,5.05-8.81,7.58-19.06,7.58-30.76s-2.53-21.91-7.58-30.65ZM869,116.85c-3.39,6.14-8.01,10.87-13.86,14.19-5.85,3.32-12.45,4.98-19.82,4.98s-13.75-1.66-19.6-4.98c-5.85-3.32-10.47-8.05-13.86-14.19-3.39-6.14-5.09-13.25-5.09-21.33s1.7-15.34,5.09-21.33c3.39-5.99,8.01-10.65,13.86-13.97,5.85-3.32,12.38-4.98,19.6-4.98s13.97,1.66,19.82,4.98c5.85,3.32,10.47,7.98,13.86,13.97,3.39,5.99,5.09,13.1,5.09,21.33s-1.7,15.2-5.09,21.33Z"/>
  </g>
  <g>
    <path class="st1" d="M34.82,235.25v-15.22l1,2.69-17.38-28.45h4.62l15.28,24.99h-2.46l15.28-24.99h4.33l-17.38,28.45,1-2.69v15.22h-4.27Z"/>
    <path class="st1" d="M69.59,235.55c-2.97,0-5.63-.67-7.99-2.02-2.36-1.35-4.22-3.2-5.59-5.56-1.37-2.36-2.05-5.06-2.05-8.11s.68-5.79,2.05-8.14c1.37-2.34,3.22-4.18,5.56-5.5,2.34-1.33,5.01-1.99,8.02-1.99s5.75.66,8.11,1.99c2.36,1.33,4.21,3.16,5.56,5.5,1.35,2.34,2.02,5.05,2.02,8.14s-.67,5.75-2.02,8.11c-1.35,2.36-3.21,4.21-5.59,5.56-2.38,1.35-5.07,2.02-8.08,2.02ZM69.59,231.86c2.22,0,4.19-.5,5.91-1.49,1.72-1,3.07-2.4,4.07-4.21s1.49-3.91,1.49-6.29-.5-4.53-1.49-6.32-2.35-3.19-4.07-4.19c-1.72-1-3.67-1.49-5.85-1.49s-4.14.5-5.85,1.49c-1.72,1-3.08,2.39-4.1,4.19-1.02,1.79-1.52,3.9-1.52,6.32s.51,4.48,1.52,6.29c1.01,1.81,2.38,3.22,4.1,4.21,1.72,1,3.65,1.49,5.79,1.49Z"/>
    <path class="st1" d="M105.7,235.55c-2.61,0-4.9-.49-6.85-1.46-1.95-.97-3.46-2.44-4.54-4.39s-1.61-4.39-1.61-7.32v-17.85h4.16v17.38c0,3.28.81,5.75,2.43,7.4,1.62,1.66,3.89,2.49,6.82,2.49,2.15,0,4.01-.44,5.59-1.32s2.79-2.16,3.63-3.83c.84-1.68,1.26-3.69,1.26-6.03v-16.1h4.16v30.73h-3.98v-8.43l.64,1.52c-.98,2.26-2.49,4.03-4.54,5.3-2.05,1.27-4.44,1.9-7.17,1.9Z"/>
    <path class="st1" d="M131.58,235.25v-30.73h3.98v8.37l-.41-1.46c.86-2.34,2.3-4.13,4.33-5.36,2.03-1.23,4.55-1.84,7.55-1.84v4.04c-.16,0-.31,0-.47-.03-.16-.02-.31-.03-.47-.03-3.24,0-5.78.99-7.61,2.96-1.83,1.97-2.75,4.77-2.75,8.4v15.69h-4.16Z"/>
    <path class="st1" d="M174.13,235.6c-2.3,0-4.46-.51-6.47-1.52-2.01-1.01-3.62-2.46-4.83-4.33l2.52-2.93c1.13,1.64,2.44,2.89,3.92,3.75,1.48.86,3.12,1.29,4.92,1.29,5.07,0,7.61-3,7.61-9.01v-24.82h-14.98v-3.75h19.26v28.39c0,4.33-1,7.57-3.01,9.72-2.01,2.15-4.99,3.22-8.93,3.22Z"/>
    <path class="st1" d="M209.95,235.55c-2.97,0-5.63-.67-7.99-2.02-2.36-1.35-4.22-3.2-5.59-5.56-1.37-2.36-2.05-5.06-2.05-8.11s.68-5.79,2.05-8.14c1.37-2.34,3.22-4.18,5.56-5.5,2.34-1.33,5.01-1.99,8.02-1.99s5.75.66,8.11,1.99c2.36,1.33,4.21,3.16,5.56,5.5,1.35,2.34,2.02,5.05,2.02,8.14s-.67,5.75-2.02,8.11c-1.35,2.36-3.21,4.21-5.59,5.56-2.38,1.35-5.07,2.02-8.08,2.02ZM209.95,231.86c2.22,0,4.19-.5,5.91-1.49,1.72-1,3.07-2.4,4.07-4.21s1.49-3.91,1.49-6.29-.5-4.53-1.49-6.32-2.35-3.19-4.07-4.19c-1.72-1-3.67-1.49-5.85-1.49s-4.14.5-5.85,1.49c-1.72,1-3.08,2.39-4.1,4.19-1.02,1.79-1.52,3.9-1.52,6.32s.51,4.48,1.52,6.29c1.01,1.81,2.38,3.22,4.1,4.21,1.72,1,3.65,1.49,5.79,1.49Z"/>
    <path class="st1" d="M246.07,235.55c-2.62,0-4.9-.49-6.85-1.46-1.95-.97-3.46-2.44-4.54-4.39-1.07-1.95-1.61-4.39-1.61-7.32v-17.85h4.16v17.38c0,3.28.81,5.75,2.43,7.4,1.62,1.66,3.89,2.49,6.82,2.49,2.15,0,4.01-.44,5.59-1.32s2.79-2.16,3.63-3.83c.84-1.68,1.26-3.69,1.26-6.03v-16.1h4.16v30.73h-3.98v-8.43l.64,1.52c-.98,2.26-2.49,4.03-4.54,5.3-2.05,1.27-4.44,1.9-7.17,1.9Z"/>
    <path class="st1" d="M271.94,235.25v-30.73h3.98v8.37l-.41-1.46c.86-2.34,2.3-4.13,4.33-5.36,2.03-1.23,4.55-1.84,7.55-1.84v4.04c-.16,0-.31,0-.47-.03-.16-.02-.31-.03-.47-.03-3.24,0-5.78.99-7.61,2.96-1.83,1.97-2.75,4.77-2.75,8.4v15.69h-4.16Z"/>
    <path class="st1" d="M294.18,235.25v-30.73h3.98v8.43l-.64-1.58c.97-2.22,2.54-3.97,4.68-5.24,2.15-1.27,4.7-1.9,7.67-1.9,2.5,0,4.69.48,6.58,1.43,1.89.96,3.38,2.41,4.45,4.36,1.07,1.95,1.61,4.41,1.61,7.38v17.85h-4.16v-17.44c0-3.24-.81-5.69-2.43-7.35-1.62-1.66-3.89-2.49-6.82-2.49-2.19,0-4.09.44-5.71,1.32-1.62.88-2.87,2.15-3.75,3.8-.88,1.66-1.32,3.66-1.32,6v16.16h-4.16Z"/>
    <path class="st1" d="M346.04,235.55c-3.2,0-6.01-.67-8.43-2.02-2.42-1.35-4.31-3.2-5.68-5.56-1.37-2.36-2.05-5.06-2.05-8.11s.65-5.74,1.96-8.08c1.31-2.34,3.1-4.18,5.39-5.53,2.28-1.35,4.85-2.02,7.7-2.02s5.45.65,7.7,1.96c2.24,1.31,4.01,3.14,5.3,5.5,1.29,2.36,1.93,5.08,1.93,8.17,0,.2,0,.4-.03.61-.02.21-.03.44-.03.67h-26.75v-3.1h24.53l-1.64,1.23c0-2.22-.48-4.21-1.43-5.94-.96-1.74-2.25-3.09-3.89-4.07-1.64-.97-3.53-1.46-5.68-1.46s-4,.49-5.68,1.46c-1.68.98-2.99,2.34-3.92,4.1s-1.4,3.77-1.4,6.03v.64c0,2.34.52,4.4,1.55,6.17,1.03,1.78,2.48,3.16,4.33,4.16s3.97,1.49,6.35,1.49c1.87,0,3.62-.33,5.24-1,1.62-.66,3.01-1.68,4.19-3.04l2.34,2.69c-1.37,1.64-3.07,2.89-5.12,3.75-2.05.86-4.3,1.29-6.76,1.29Z"/>
    <path class="st1" d="M367.46,246.9c-1.44,0-2.82-.23-4.13-.7-1.31-.47-2.43-1.17-3.37-2.11l1.93-3.1c.78.74,1.63,1.32,2.55,1.73.92.41,1.94.61,3.07.61,1.37,0,2.55-.38,3.54-1.14,1-.76,1.94-2.1,2.84-4.01l1.99-4.51.47-.64,12.64-28.51h4.1l-15.39,34.42c-.86,1.99-1.81,3.57-2.84,4.74-1.03,1.17-2.16,2-3.37,2.49-1.21.49-2.56.73-4.04.73ZM375.66,236.13l-14.17-31.61h4.33l12.53,28.21-2.69,3.4Z"/>
    <path class="st1" d="M413.64,235.25v-40.97h17.68c4.57,0,8.11.92,10.62,2.75,2.52,1.83,3.78,4.43,3.78,7.79,0,2.22-.52,4.1-1.55,5.62-1.03,1.52-2.44,2.67-4.21,3.45-1.78.78-3.72,1.17-5.82,1.17l1-1.41c2.61,0,4.87.4,6.76,1.2,1.89.8,3.37,1.99,4.42,3.57,1.05,1.58,1.58,3.54,1.58,5.88,0,3.47-1.28,6.17-3.83,8.08-2.56,1.91-6.41,2.87-11.56,2.87h-18.85ZM417.98,231.68h14.46c3.59,0,6.34-.62,8.25-1.84,1.91-1.23,2.87-3.19,2.87-5.88s-.96-4.6-2.87-5.82c-1.91-1.23-4.66-1.84-8.25-1.84h-14.93v-3.57h13.52c3.28,0,5.82-.62,7.64-1.87,1.81-1.25,2.72-3.1,2.72-5.56s-.91-4.36-2.72-5.59c-1.81-1.23-4.36-1.84-7.64-1.84h-13.05v33.83Z"/>
    <path class="st1" d="M469.19,235.55c-3.2,0-6.01-.67-8.43-2.02-2.42-1.35-4.31-3.2-5.68-5.56-1.37-2.36-2.05-5.06-2.05-8.11s.65-5.74,1.96-8.08c1.31-2.34,3.1-4.18,5.39-5.53,2.28-1.35,4.85-2.02,7.7-2.02s5.45.65,7.7,1.96c2.24,1.31,4.01,3.14,5.3,5.5,1.29,2.36,1.93,5.08,1.93,8.17,0,.2,0,.4-.03.61-.02.21-.03.44-.03.67h-26.75v-3.1h24.53l-1.64,1.23c0-2.22-.48-4.21-1.43-5.94-.96-1.74-2.25-3.09-3.89-4.07-1.64-.97-3.53-1.46-5.68-1.46s-4,.49-5.68,1.46c-1.68.98-2.99,2.34-3.92,4.1s-1.41,3.77-1.41,6.03v.64c0,2.34.52,4.4,1.55,6.17,1.03,1.78,2.48,3.16,4.33,4.16,1.85,1,3.97,1.49,6.35,1.49,1.87,0,3.62-.33,5.24-1,1.62-.66,3.01-1.68,4.18-3.04l2.34,2.69c-1.37,1.64-3.07,2.89-5.12,3.75-2.05.86-4.3,1.29-6.76,1.29Z"/>
    <path class="st1" d="M503.08,234.08c-2.93,0-5.56-.63-7.9-1.9-2.34-1.27-4.18-3.03-5.53-5.3-1.35-2.26-2.02-4.86-2.02-7.79s.67-5.51,2.02-7.76c1.35-2.24,3.19-3.99,5.53-5.24,2.34-1.25,4.98-1.87,7.9-1.87,2.73,0,5.19.57,7.38,1.7s3.92,2.81,5.21,5.03c1.29,2.22,1.93,4.94,1.93,8.14s-.64,5.91-1.93,8.14c-1.29,2.22-3.02,3.92-5.21,5.09s-4.64,1.76-7.38,1.76ZM503.84,246.9c-2.81,0-5.5-.41-8.08-1.23-2.58-.82-4.66-1.99-6.26-3.51l2.11-3.16c1.44,1.29,3.23,2.31,5.36,3.07,2.13.76,4.38,1.14,6.76,1.14,3.9,0,6.77-.91,8.6-2.72s2.75-4.63,2.75-8.46v-7.67l.58-5.27-.41-5.27v-9.31h3.98v26.98c0,5.31-1.3,9.2-3.89,11.68-2.6,2.48-6.43,3.72-11.5,3.72ZM503.49,230.4c2.26,0,4.27-.48,6.03-1.43,1.76-.96,3.14-2.28,4.16-3.98,1.01-1.7,1.52-3.66,1.52-5.88s-.51-4.18-1.52-5.85-2.4-2.99-4.16-3.95c-1.76-.96-3.77-1.43-6.03-1.43s-4.22.48-6,1.43c-1.78.96-3.16,2.27-4.16,3.95-.99,1.68-1.49,3.63-1.49,5.85s.5,4.18,1.49,5.88c1,1.7,2.38,3.02,4.16,3.98,1.78.96,3.78,1.43,6,1.43Z"/>
    <path class="st1" d="M532.18,197.73c-.86,0-1.58-.29-2.17-.88-.59-.58-.88-1.29-.88-2.11s.29-1.51.88-2.08c.58-.57,1.31-.85,2.17-.85s1.58.27,2.17.82.88,1.23.88,2.05c0,.86-.28,1.58-.85,2.17-.57.59-1.3.88-2.19.88ZM530.07,235.25v-30.73h4.16v30.73h-4.16Z"/>
    <path class="st1" d="M545.05,235.25v-30.73h3.98v8.43l-.64-1.58c.97-2.22,2.54-3.97,4.68-5.24,2.15-1.27,4.7-1.9,7.67-1.9,2.5,0,4.69.48,6.58,1.43s3.38,2.41,4.45,4.36c1.07,1.95,1.61,4.41,1.61,7.38v17.85h-4.16v-17.44c0-3.24-.81-5.69-2.43-7.35-1.62-1.66-3.89-2.49-6.82-2.49-2.19,0-4.09.44-5.71,1.32-1.62.88-2.87,2.15-3.75,3.8-.88,1.66-1.32,3.66-1.32,6v16.16h-4.16Z"/>
    <path class="st1" d="M592.11,235.55c-2.54,0-4.94-.36-7.2-1.08-2.26-.72-4.04-1.63-5.33-2.72l1.87-3.28c1.25.94,2.85,1.75,4.8,2.43,1.95.68,4,1.02,6.15,1.02,2.93,0,5.03-.46,6.32-1.38s1.93-2.14,1.93-3.66c0-1.13-.36-2.02-1.08-2.66-.72-.64-1.67-1.13-2.84-1.46-1.17-.33-2.48-.61-3.92-.85-1.44-.23-2.88-.51-4.3-.82-1.42-.31-2.72-.77-3.89-1.38-1.17-.6-2.12-1.43-2.84-2.49-.72-1.05-1.08-2.46-1.08-4.21s.47-3.18,1.4-4.51c.94-1.33,2.31-2.37,4.13-3.13s4.03-1.14,6.64-1.14c1.99,0,3.98.26,5.97.79,1.99.53,3.63,1.22,4.92,2.08l-1.81,3.34c-1.37-.94-2.83-1.61-4.39-2.02s-3.12-.61-4.68-.61c-2.77,0-4.81.48-6.12,1.43-1.31.96-1.96,2.18-1.96,3.66,0,1.17.36,2.09,1.08,2.75.72.66,1.68,1.18,2.87,1.55,1.19.37,2.5.67,3.92.91,1.42.23,2.85.52,4.27.85,1.42.33,2.73.78,3.92,1.35,1.19.57,2.15,1.37,2.87,2.4.72,1.03,1.08,2.39,1.08,4.07,0,1.79-.5,3.35-1.49,4.65s-2.44,2.32-4.33,3.04c-1.89.72-4.19,1.08-6.88,1.08Z"/>
    <path class="st1" d="M627.11,235.25v-40.97h4.33v40.97h-4.33ZM630.98,216.35v-3.8h26.52v3.8h-26.52ZM657.08,235.25v-40.97h4.27v40.97h-4.27Z"/>
    <path class="st1" d="M686.12,235.55c-3.2,0-6.01-.67-8.43-2.02-2.42-1.35-4.31-3.2-5.68-5.56-1.37-2.36-2.05-5.06-2.05-8.11s.65-5.74,1.96-8.08c1.31-2.34,3.1-4.18,5.39-5.53,2.28-1.35,4.85-2.02,7.7-2.02s5.45.65,7.7,1.96c2.24,1.31,4.01,3.14,5.3,5.5s1.93,5.08,1.93,8.17c0,.2-.01.4-.03.61-.02.21-.03.44-.03.67h-26.75v-3.1h24.53l-1.64,1.23c0-2.22-.48-4.21-1.43-5.94s-2.25-3.09-3.89-4.07c-1.64-.97-3.53-1.46-5.68-1.46s-4,.49-5.68,1.46c-1.68.98-2.98,2.34-3.92,4.1s-1.41,3.77-1.41,6.03v.64c0,2.34.52,4.4,1.55,6.17,1.03,1.78,2.48,3.16,4.33,4.16s3.97,1.49,6.35,1.49c1.87,0,3.62-.33,5.24-1,1.62-.66,3.01-1.68,4.19-3.04l2.34,2.69c-1.37,1.64-3.07,2.89-5.12,3.75s-4.3,1.29-6.76,1.29Z"/>
    <path class="st1" d="M707.66,235.25v-30.73h3.98v8.37l-.41-1.46c.86-2.34,2.3-4.13,4.33-5.36,2.03-1.23,4.54-1.84,7.55-1.84v4.04c-.16,0-.31,0-.47-.03-.16-.02-.31-.03-.47-.03-3.24,0-5.78.99-7.61,2.96-1.83,1.97-2.75,4.77-2.75,8.4v15.69h-4.16Z"/>
    <path class="st1" d="M742.66,235.55c-3.2,0-6.01-.67-8.43-2.02-2.42-1.35-4.31-3.2-5.68-5.56-1.37-2.36-2.05-5.06-2.05-8.11s.65-5.74,1.96-8.08c1.31-2.34,3.1-4.18,5.38-5.53,2.28-1.35,4.85-2.02,7.7-2.02s5.45.65,7.7,1.96c2.24,1.31,4.01,3.14,5.3,5.5,1.29,2.36,1.93,5.08,1.93,8.17,0,.2-.01.4-.03.61-.02.21-.03.44-.03.67h-26.75v-3.1h24.53l-1.64,1.23c0-2.22-.48-4.21-1.43-5.94s-2.25-3.09-3.89-4.07c-1.64-.97-3.53-1.46-5.68-1.46s-4,.49-5.68,1.46c-1.68.98-2.98,2.34-3.92,4.1-.94,1.76-1.4,3.77-1.4,6.03v.64c0,2.34.52,4.4,1.55,6.17,1.03,1.78,2.48,3.16,4.33,4.16,1.85,1,3.97,1.49,6.35,1.49,1.87,0,3.62-.33,5.24-1,1.62-.66,3.01-1.68,4.18-3.04l2.34,2.69c-1.37,1.64-3.07,2.89-5.12,3.75s-4.3,1.29-6.76,1.29Z"/>
    <path class="st1" d="M764.61,235.55c-.86,0-1.59-.31-2.2-.94-.61-.62-.91-1.38-.91-2.28s.3-1.7.91-2.28c.6-.58,1.34-.88,2.2-.88s1.59.29,2.19.88c.6.59.91,1.35.91,2.28s-.3,1.66-.91,2.28c-.61.62-1.34.94-2.19.94Z"/>
  </g>
</svg>